<svg xmlns="http://www.w3.org/2000/svg" viewBox="0 0 1200 800" role="img" aria-label="Venus in 5th house career fits for Mesh Lagna">
  <defs>
    <linearGradient id="bg" x1="0" y1="0" x2="1" y2="1">
      <stop offset="0%" stop-color="#5a1d3e"/>
      <stop offset="100%" stop-color="#01262b"/>
    </linearGradient>
    <linearGradient id="cardBg" x1="0" y1="0" x2="0" y2="1">
      <stop offset="0%" stop-color="#F4ECDA"/>
      <stop offset="100%" stop-color="#faf6ef"/>
    </linearGradient>
    <pattern id="diamondPattern" x="0" y="0" width="34" height="34" patternUnits="userSpaceOnUse">
      <path d="M17 2 L32 17 L17 32 L2 17 Z" fill="none" stroke="#e8840a" stroke-opacity="0.06" stroke-width="1"/>
    </pattern>
  </defs>

  <!-- Outer card with brand gradient -->
  <rect x="0" y="0" width="1200" height="800" fill="url(#bg)"/>
  <rect x="0" y="0" width="1200" height="800" fill="url(#diamondPattern)"/>

  <!-- Inner cream panel -->
  <rect x="20" y="20" width="1160" height="760" rx="20" fill="url(#cardBg)"/>

  <!-- Header band -->
  <g>
    <text x="40" y="74" font-family="system-ui, -apple-system, sans-serif" font-size="14" font-weight="700" letter-spacing="3" fill="#e8840a">CAREER FITS</text>
    <text x="40" y="86" font-family="system-ui, -apple-system, sans-serif" font-size="14" font-weight="700" letter-spacing="3" fill="#e8840a">_______________</text>

    <!-- Planet glyph chip -->
    <circle cx="86" cy="146" r="42" fill="#e8840a"/>
    <text x="86" y="166" text-anchor="middle" font-family="Georgia, serif" font-size="48" font-weight="700" fill="#faf6ef">♀</text>

    <!-- Title -->
    <text x="160" y="146" font-family="Georgia, 'Times New Roman', serif" font-size="44" font-weight="700" fill="#0d1f24">Venus in the 5th house</text>
    <text x="160" y="186" font-family="Georgia, serif" font-style="italic" font-size="22" fill="#3a4f54">Mesh Lagna · Reviewed practitioner study</text>
  </g>

  <!-- Items grid -->
  
      <g>
        <rect x="40" y="230" width="545" height="147.33333333333334" rx="14" fill="#faf6ef" stroke="rgba(1,63,71,0.10)" stroke-width="1"/>
        <circle cx="94" cy="284" r="30" fill="#FBE2BD"/>
        <g transform="translate(74 264)" color="#e8840a"><g fill="none" stroke="currentColor" stroke-width="2.4" stroke-linecap="round" stroke-linejoin="round"><path d="M14 28 V12 L30 8 V24"/><circle cx="11" cy="28" r="3"/><circle cx="27" cy="24" r="3"/></g></g>
        <text x="146" y="280" font-family="Georgia, 'Times New Roman', serif" font-size="26" font-weight="700" fill="#0d1f24">Performing arts</text>
        <text x="146" y="312" font-family="system-ui, -apple-system, 'Segoe UI', Roboto, sans-serif" font-size="17" fill="#3a4f54">theatre, music, dance</text>
      </g>
    

      <g>
        <rect x="615" y="230" width="545" height="147.33333333333334" rx="14" fill="#faf6ef" stroke="rgba(1,63,71,0.10)" stroke-width="1"/>
        <circle cx="669" cy="284" r="30" fill="#FBE2BD"/>
        <g transform="translate(649 264)" color="#e8840a"><g fill="none" stroke="currentColor" stroke-width="2.4" stroke-linecap="round" stroke-linejoin="round"><path d="M8 32 L12 28 L26 14 L30 18 L16 32 Z"/><path d="M24 12 L28 8 L32 12 L28 16"/><path d="M8 32 L14 30"/></g></g>
        <text x="721" y="280" font-family="Georgia, 'Times New Roman', serif" font-size="26" font-weight="700" fill="#0d1f24">Writing</text>
        <text x="721" y="312" font-family="system-ui, -apple-system, 'Segoe UI', Roboto, sans-serif" font-size="17" fill="#3a4f54">poetry, literary fiction, screenwriting</text>
      </g>
    

      <g>
        <rect x="40" y="401.33333333333337" width="545" height="147.33333333333334" rx="14" fill="#faf6ef" stroke="rgba(1,63,71,0.10)" stroke-width="1"/>
        <circle cx="94" cy="455.33333333333337" r="30" fill="#FBE2BD"/>
        <g transform="translate(74 435.33333333333337)" color="#e8840a"><g fill="none" stroke="currentColor" stroke-width="2.4" stroke-linecap="round" stroke-linejoin="round"><path d="M14 28 V12 L30 8 V24"/><circle cx="11" cy="28" r="3"/><circle cx="27" cy="24" r="3"/></g></g>
        <text x="146" y="451.33333333333337" font-family="Georgia, 'Times New Roman', serif" font-size="26" font-weight="700" fill="#0d1f24">Fashion</text>
        <text x="146" y="483.33333333333337" font-family="system-ui, -apple-system, 'Segoe UI', Roboto, sans-serif" font-size="17" fill="#3a4f54">costume, design for performance</text>
      </g>
    

      <g>
        <rect x="615" y="401.33333333333337" width="545" height="147.33333333333334" rx="14" fill="#faf6ef" stroke="rgba(1,63,71,0.10)" stroke-width="1"/>
        <circle cx="669" cy="455.33333333333337" r="30" fill="#FBE2BD"/>
        <g transform="translate(649 435.33333333333337)" color="#e8840a"><g fill="none" stroke="currentColor" stroke-width="2.4" stroke-linecap="round" stroke-linejoin="round"><path d="M4 16 L20 8 L36 16 L20 24 Z"/><path d="M10 19 V26 c2 4 16 4 20 0 V19"/></g></g>
        <text x="721" y="451.33333333333337" font-family="Georgia, 'Times New Roman', serif" font-size="26" font-weight="700" fill="#0d1f24">Teaching creative arts</text>
        <text x="721" y="483.33333333333337" font-family="system-ui, -apple-system, 'Segoe UI', Roboto, sans-serif" font-size="17" fill="#3a4f54">especially to children</text>
      </g>
    

      <g>
        <rect x="40" y="572.6666666666667" width="545" height="147.33333333333334" rx="14" fill="#faf6ef" stroke="rgba(1,63,71,0.10)" stroke-width="1"/>
        <circle cx="94" cy="626.6666666666667" r="30" fill="#FBE2BD"/>
        <g transform="translate(74 606.6666666666667)" color="#e8840a"><g fill="none" stroke="currentColor" stroke-width="2.4" stroke-linecap="round" stroke-linejoin="round"><path d="M20 4 L24 14 L34 14 L26 22 L29 32 L20 26 L11 32 L14 22 L6 14 L16 14 Z"/></g></g>
        <text x="146" y="622.6666666666667" font-family="Georgia, 'Times New Roman', serif" font-size="26" font-weight="700" fill="#0d1f24">Film</text>
        <text x="146" y="654.6666666666667" font-family="system-ui, -apple-system, 'Segoe UI', Roboto, sans-serif" font-size="17" fill="#3a4f54">entertainment production</text>
      </g>
    

      <g>
        <rect x="615" y="572.6666666666667" width="545" height="147.33333333333334" rx="14" fill="#faf6ef" stroke="rgba(1,63,71,0.10)" stroke-width="1"/>
        <circle cx="669" cy="626.6666666666667" r="30" fill="#FBE2BD"/>
        <g transform="translate(649 606.6666666666667)" color="#e8840a"><g fill="none" stroke="currentColor" stroke-width="2.4" stroke-linecap="round" stroke-linejoin="round"><rect x="4" y="14" width="32" height="20" rx="2"/><path d="M14 14 V8 H26 V14"/><path d="M4 22 L36 22"/></g></g>
        <text x="721" y="622.6666666666667" font-family="Georgia, 'Times New Roman', serif" font-size="26" font-weight="700" fill="#0d1f24">Creative partnership…</text>
        <text x="721" y="654.6666666666667" font-family="system-ui, -apple-system, 'Segoe UI', Roboto, sans-serif" font-size="17" fill="#3a4f54">spouse</text>
      </g>
    

  <!-- Footer -->
  <text x="40" y="760" font-family="system-ui, sans-serif" font-size="13" font-weight="600" letter-spacing="2" fill="#7a8a8f">VASTUCART EDITORIAL</text>
  <text x="1160" y="760" text-anchor="end" font-family="system-ui, sans-serif" font-size="13" fill="#7a8a8f">Putra Bhava · classical Parashari tradition</text>
</svg>