<svg xmlns="http://www.w3.org/2000/svg" viewBox="0 0 1060 1048" width="1060" height="1048">
  <defs>
    <linearGradient id="cardA" x1="0" y1="0" x2="0" y2="1">
      <stop offset="0" stop-color="#F5EFE0"/>
      <stop offset="1" stop-color="#EFE4C9"/>
    </linearGradient>
    <radialGradient id="bgA" cx="0.5" cy="0.4" r="0.85">
      <stop offset="0" stop-color="#0A4F58"/>
      <stop offset="1" stop-color="#013F47"/>
    </radialGradient>
    <pattern id="dotsA" x="0" y="0" width="22" height="22" patternUnits="userSpaceOnUse">
      <circle cx="11" cy="11" r="0.7" fill="#C8A96A" opacity="0.18"/>
    </pattern>
  </defs>

  <rect width="1060" height="1048" fill="url(#bgA)"/>
  <rect width="1060" height="1048" fill="url(#dotsA)"/>

  <g stroke="#C8A96A" stroke-width="1" fill="none" opacity="0.55">
    <path d="M 38,38 L 38,90 M 38,38 L 90,38"/>
    <path d="M 38,72 Q 60,72 72,38"/>
    <path d="M 1022,38 L 1022,90 M 1022,38 L 970,38"/>
    <path d="M 1022,72 Q 1000,72 988,38"/>
    <path d="M 38,1010 L 38,958 M 38,1010 L 90,1010"/>
    <path d="M 38,976 Q 60,976 72,1010"/>
    <path d="M 1022,1010 L 1022,958 M 1022,1010 L 970,1010"/>
    <path d="M 1022,976 Q 1000,976 988,1010"/>
  </g>

  <rect x="80" y="100" width="900" height="848" rx="6" ry="6"
        fill="url(#cardA)" stroke="#C8A96A" stroke-width="2"/>
  <rect x="94" y="114" width="872" height="820" rx="3" ry="3"
        fill="none" stroke="#C8A96A" stroke-width="0.7" opacity="0.7"/>

  <g transform="translate(530,205)">
    <line x1="-160" y1="0" x2="-30" y2="0" stroke="#C8A96A" stroke-width="0.9"/>
    <line x1="30"   y1="0" x2="160" y2="0" stroke="#C8A96A" stroke-width="0.9"/>
    <circle r="22" fill="none" stroke="#C8A96A" stroke-width="1.1"/>
    <circle r="14" fill="#013F47"/>
    <g transform="scale(0.5)">
    <path d="M -16 -14 Q -22 -14 -22 -8 Q -22 -2 -14 -2 L 14 -2"
          stroke="#E97A2B" stroke-width="2.4" stroke-linecap="round" stroke-linejoin="round" fill="none"/>
    <path d="M 8 -22 L 8 22" stroke="#E97A2B" stroke-width="2.4" stroke-linecap="round" stroke-linejoin="round" fill="none"/>
  </g>
    <g fill="#C8A96A" opacity="0.85">
      <polygon points="-30,0 -25,-4 -20,0 -25,4"/>
      <polygon points="30,0 25,-4 20,0 25,4"/>
    </g>
  </g>

  <text x="530" y="265" text-anchor="middle" font-family="serif"
        letter-spacing="7" font-size="17" fill="#E97A2B" font-weight="500">BṚHASPATI  STOTRAM</text>
  <text x="530" y="292" text-anchor="middle" font-family="serif"
        font-style="italic" font-size="15" fill="#A8884F" letter-spacing="2">Navagraha · Verse to Jupiter</text>

  <g font-family="FreeSerif, serif" fill="#013F47" text-anchor="middle">
    <text x="530" y="395" font-size="38">देवानां च ऋषीणां च गुरुं काञ्चनसन्निभम् ।</text>
    <text x="530" y="455" font-size="38">बुद्धिभूतं त्रिलोकेशं तं नमामि बृहस्पतिम् ॥</text>
  </g>

  <g transform="translate(530,510)">
    <line x1="-200" y1="0" x2="-18" y2="0" stroke="#C8A96A" stroke-width="0.8"/>
    <line x1="18" y1="0" x2="200" y2="0" stroke="#C8A96A" stroke-width="0.8"/>
    <polygon points="-12,0 0,-7 12,0 0,7" fill="none" stroke="#C8A96A" stroke-width="0.9"/>
    <circle r="2" fill="#E97A2B"/>
  </g>

  <g font-family="serif" font-style="italic" fill="#9B5A1F" text-anchor="middle">
    <text x="530" y="572" font-size="25">devānāṃ ca ṛṣīṇāṃ ca guruṃ kāñcana-sannibham</text>
    <text x="530" y="610" font-size="25">buddhi-bhūtaṃ tri-loka-īśaṃ taṃ namāmi bṛhaspatim</text>
  </g>

  <g transform="translate(530,665)">
    <line x1="-160" y1="0" x2="-8" y2="0" stroke="#C8A96A" stroke-width="0.6"/>
    <line x1="8" y1="0" x2="160" y2="0" stroke="#C8A96A" stroke-width="0.6"/>
    <circle r="2.2" fill="#C8A96A"/>
  </g>

  <g font-family="serif" fill="#013F47" text-anchor="middle">
    <text x="530" y="722" font-size="22">Teacher of gods and sages alike,</text>
    <text x="530" y="757" font-size="22">his form a glow of gold, wisdom incarnate —</text>
    <text x="530" y="792" font-size="22">to Bṛhaspati, lord of the three worlds, I bow.</text>
  </g>

  <g transform="translate(530,860)">
    <line x1="-90" y1="0" x2="-22" y2="0" stroke="#C8A96A" stroke-width="0.9"/>
    <line x1="22" y1="0" x2="90" y2="0" stroke="#C8A96A" stroke-width="0.9"/>
    <circle r="9" fill="none" stroke="#C8A96A" stroke-width="0.9"/>
    <circle r="2.5" fill="#E97A2B"/>
  </g>
  <text x="530" y="905" text-anchor="middle" font-family="serif"
        font-style="italic" font-size="14" fill="#A8884F" letter-spacing="3">|| dhyāna ślokaḥ ||</text>
</svg>
