<svg xmlns="http://www.w3.org/2000/svg" viewBox="0 0 1200 800" role="img" aria-label="Life Path Number 6 career fits infographic for the Venus-ruled archetype">
  <defs>
    <linearGradient id="bg" x1="0" y1="0" x2="1" y2="1">
      <stop offset="0%" stop-color="#5a1d3e"/>
      <stop offset="100%" stop-color="#01262b"/>
    </linearGradient>
    <linearGradient id="cardBg" x1="0" y1="0" x2="0" y2="1">
      <stop offset="0%" stop-color="#F4ECDA"/>
      <stop offset="100%" stop-color="#faf6ef"/>
    </linearGradient>
    <pattern id="diamondPattern" x="0" y="0" width="34" height="34" patternUnits="userSpaceOnUse">
      <path d="M17 2 L32 17 L17 32 L2 17 Z" fill="none" stroke="#e8840a" stroke-opacity="0.06" stroke-width="1"/>
    </pattern>
  </defs>
  <rect width="1200" height="800" fill="url(#bg)"/>
  <rect width="1200" height="800" fill="url(#diamondPattern)"/>
  <rect x="20" y="20" width="1160" height="760" rx="20" fill="url(#cardBg)"/>
  <g>
    <text x="40" y="74" font-family="system-ui, sans-serif" font-size="14" font-weight="700" letter-spacing="3" fill="#e8840a">CAREER FITS</text>
    <text x="40" y="86" font-family="system-ui, sans-serif" font-size="14" font-weight="700" letter-spacing="3" fill="#e8840a">________________________</text>
    <circle cx="86" cy="146" r="42" fill="#e8840a"/>
    <g transform="translate(86 146)"><g transform="scale(0.9)">
    <circle cx="0" cy="-6" r="12" stroke="#faf6ef" stroke-width="3.4" stroke-linecap="round" stroke-linejoin="round" fill="none"/>
    <line x1="0" y1="6" x2="0" y2="24" stroke="#faf6ef" stroke-width="3.4" stroke-linecap="round" stroke-linejoin="round" fill="none"/>
    <line x1="-8" y1="14" x2="8" y2="14" stroke="#faf6ef" stroke-width="3.4" stroke-linecap="round" stroke-linejoin="round" fill="none"/>
  </g></g>
    <text x="160" y="146" font-family="Georgia, 'Times New Roman', serif" font-size="44" font-weight="700" fill="#0d1f24">Life Path 6, the Venus-ruled aesthete</text>
    <text x="160" y="186" font-family="Georgia, serif" font-style="italic" font-size="22" fill="#3a4f54">Venus ruled · Friday signature</text>
  </g>
  
      <g>
        <rect x="40" y="230" width="545" height="147.33333333333334" rx="14" fill="#faf6ef" stroke="rgba(1,63,71,0.10)" stroke-width="1"/>
        <circle cx="94" cy="284" r="30" fill="#FBE2BD"/>
        <g transform="translate(74 264)" color="#e8840a"><g fill="none" stroke="currentColor" stroke-width="2.4" stroke-linecap="round" stroke-linejoin="round"><path d="M12 6 V14 a4 4 0 0 0 4 4 H22 a4 4 0 0 0 4 -4 V6"/><circle cx="29" cy="24" r="3"/><path d="M19 18 V22 a4 4 0 0 0 4 4 H26"/><path d="M9 6 L15 6"/><path d="M23 6 L29 6"/></g></g>
        <text x="146" y="280" font-family="Georgia, 'Times New Roman', serif" font-size="26" font-weight="700" fill="#0d1f24">Interior design</text>
        <text x="146" y="312" font-family="system-ui, -apple-system, 'Segoe UI', Roboto, sans-serif" font-size="17" fill="#3a4f54">fashion, hospitality leadership</text>
      </g>
    

      <g>
        <rect x="615" y="230" width="545" height="147.33333333333334" rx="14" fill="#faf6ef" stroke="rgba(1,63,71,0.10)" stroke-width="1"/>
        <circle cx="669" cy="284" r="30" fill="#FBE2BD"/>
        <g transform="translate(649 264)" color="#e8840a"><g fill="none" stroke="currentColor" stroke-width="2.4" stroke-linecap="round" stroke-linejoin="round"><path d="M20 6 L20 30"/><path d="M12 30 L28 30"/><path d="M10 12 L20 8 L30 12"/><path d="M6 20 a4 4 0 0 0 8 0 L10 12 Z"/><path d="M26 20 a4 4 0 0 0 8 0 L30 12 Z"/></g></g>
        <text x="721" y="280" font-family="Georgia, 'Times New Roman', serif" font-size="26" font-weight="700" fill="#0d1f24">Counselling</text>
        <text x="721" y="312" font-family="system-ui, -apple-system, 'Segoe UI', Roboto, sans-serif" font-size="17" fill="#3a4f54">marriage therapy, family law</text>
      </g>
    

      <g>
        <rect x="40" y="401.33333333333337" width="545" height="147.33333333333334" rx="14" fill="#faf6ef" stroke="rgba(1,63,71,0.10)" stroke-width="1"/>
        <circle cx="94" cy="455.33333333333337" r="30" fill="#FBE2BD"/>
        <g transform="translate(74 435.33333333333337)" color="#e8840a"><g fill="none" stroke="currentColor" stroke-width="2.4" stroke-linecap="round" stroke-linejoin="round"><path d="M12 6 V14 a4 4 0 0 0 4 4 H22 a4 4 0 0 0 4 -4 V6"/><circle cx="29" cy="24" r="3"/><path d="M19 18 V22 a4 4 0 0 0 4 4 H26"/><path d="M9 6 L15 6"/><path d="M23 6 L29 6"/></g></g>
        <text x="146" y="451.33333333333337" font-family="Georgia, 'Times New Roman', serif" font-size="26" font-weight="700" fill="#0d1f24">Paediatric</text>
        <text x="146" y="483.33333333333337" font-family="system-ui, -apple-system, 'Segoe UI', Roboto, sans-serif" font-size="17" fill="#3a4f54">obstetric medicine</text>
      </g>
    

      <g>
        <rect x="615" y="401.33333333333337" width="545" height="147.33333333333334" rx="14" fill="#faf6ef" stroke="rgba(1,63,71,0.10)" stroke-width="1"/>
        <circle cx="669" cy="455.33333333333337" r="30" fill="#FBE2BD"/>
        <g transform="translate(649 435.33333333333337)" color="#e8840a"><g fill="none" stroke="currentColor" stroke-width="2.4" stroke-linecap="round" stroke-linejoin="round"><path d="M14 28 V12 L30 8 V24"/><circle cx="11" cy="28" r="3"/><circle cx="27" cy="24" r="3"/></g></g>
        <text x="721" y="451.33333333333337" font-family="Georgia, 'Times New Roman', serif" font-size="26" font-weight="700" fill="#0d1f24">Visual arts</text>
        <text x="721" y="483.33333333333337" font-family="system-ui, -apple-system, 'Segoe UI', Roboto, sans-serif" font-size="17" fill="#3a4f54">music composition, perfumery</text>
      </g>
    

      <g>
        <rect x="40" y="572.6666666666667" width="545" height="147.33333333333334" rx="14" fill="#faf6ef" stroke="rgba(1,63,71,0.10)" stroke-width="1"/>
        <circle cx="94" cy="626.6666666666667" r="30" fill="#FBE2BD"/>
        <g transform="translate(74 606.6666666666667)" color="#e8840a"><g fill="none" stroke="currentColor" stroke-width="2.4" stroke-linecap="round" stroke-linejoin="round"><path d="M20 32 C8 24 4 17 8 11 C12 5 18 7 20 12 C22 7 28 5 32 11 C36 17 32 24 20 32 Z"/></g></g>
        <text x="146" y="622.6666666666667" font-family="Georgia, 'Times New Roman', serif" font-size="26" font-weight="700" fill="#0d1f24">Curatorial work</text>
        <text x="146" y="654.6666666666667" font-family="system-ui, -apple-system, 'Segoe UI', Roboto, sans-serif" font-size="17" fill="#3a4f54">museum, gallery leadership</text>
      </g>
    

      <g>
        <rect x="615" y="572.6666666666667" width="545" height="147.33333333333334" rx="14" fill="#faf6ef" stroke="rgba(1,63,71,0.10)" stroke-width="1"/>
        <circle cx="669" cy="626.6666666666667" r="30" fill="#FBE2BD"/>
        <g transform="translate(649 606.6666666666667)" color="#e8840a"><g fill="none" stroke="currentColor" stroke-width="2.4" stroke-linecap="round" stroke-linejoin="round"><path d="M12 6 V14 a4 4 0 0 0 4 4 H22 a4 4 0 0 0 4 -4 V6"/><circle cx="29" cy="24" r="3"/><path d="M19 18 V22 a4 4 0 0 0 4 4 H26"/><path d="M9 6 L15 6"/><path d="M23 6 L29 6"/></g></g>
        <text x="721" y="622.6666666666667" font-family="Georgia, 'Times New Roman', serif" font-size="26" font-weight="700" fill="#0d1f24">Hospitality entrepreneurship</text>
        <text x="721" y="654.6666666666667" font-family="system-ui, -apple-system, 'Segoe UI', Roboto, sans-serif" font-size="17" fill="#3a4f54">named restaurants</text>
      </g>
    
  <text x="40" y="760" font-family="system-ui, sans-serif" font-size="13" font-weight="600" letter-spacing="2" fill="#7a8a8f">VASTUCART EDITORIAL</text>
  <text x="1160" y="760" text-anchor="end" font-family="system-ui, sans-serif" font-size="13" fill="#7a8a8f">Venus karakatva · classical ank jyotish</text>
</svg>