<svg xmlns="http://www.w3.org/2000/svg" viewBox="0 0 1200 800" role="img" aria-label="Mercury in 9th house career fits for Meena Lagna">
  <defs>
    <linearGradient id="bg" x1="0" y1="0" x2="1" y2="1">
      <stop offset="0%" stop-color="#013F47"/>
      <stop offset="100%" stop-color="#01262b"/>
    </linearGradient>
    <linearGradient id="cardBg" x1="0" y1="0" x2="0" y2="1">
      <stop offset="0%" stop-color="#F4ECDA"/>
      <stop offset="100%" stop-color="#faf6ef"/>
    </linearGradient>
    <pattern id="diamondPattern" x="0" y="0" width="34" height="34" patternUnits="userSpaceOnUse">
      <path d="M17 2 L32 17 L17 32 L2 17 Z" fill="none" stroke="#338a95" stroke-opacity="0.06" stroke-width="1"/>
    </pattern>
  </defs>

  <!-- Outer card with brand gradient -->
  <rect x="0" y="0" width="1200" height="800" fill="url(#bg)"/>
  <rect x="0" y="0" width="1200" height="800" fill="url(#diamondPattern)"/>

  <!-- Inner cream panel -->
  <rect x="20" y="20" width="1160" height="760" rx="20" fill="url(#cardBg)"/>

  <!-- Header band -->
  <g>
    <text x="40" y="74" font-family="system-ui, -apple-system, sans-serif" font-size="14" font-weight="700" letter-spacing="3" fill="#338a95">CAREER FITS</text>
    <text x="40" y="86" font-family="system-ui, -apple-system, sans-serif" font-size="14" font-weight="700" letter-spacing="3" fill="#338a95">_______________</text>

    <!-- Planet glyph chip -->
    <circle cx="86" cy="146" r="42" fill="#338a95"/>
    <g transform="translate(86 146)"><g transform="scale(0.9)">
    <path d="M -10 -18 A 10 10 0 0 0 10 -18" stroke="#faf6ef" stroke-width="3.4" stroke-linecap="round" stroke-linejoin="round" fill="none"/>
    <circle cx="0" cy="-2" r="11" stroke="#faf6ef" stroke-width="3.4" stroke-linecap="round" stroke-linejoin="round" fill="none"/>
    <line x1="0" y1="9" x2="0" y2="24" stroke="#faf6ef" stroke-width="3.4" stroke-linecap="round" stroke-linejoin="round" fill="none"/>
    <line x1="-8" y1="16" x2="8" y2="16" stroke="#faf6ef" stroke-width="3.4" stroke-linecap="round" stroke-linejoin="round" fill="none"/>
  </g></g>

    <!-- Title -->
    <text x="160" y="146" font-family="Georgia, 'Times New Roman', serif" font-size="44" font-weight="700" fill="#0d1f24">Mercury in the 9th house</text>
    <text x="160" y="186" font-family="Georgia, serif" font-style="italic" font-size="22" fill="#3a4f54">Meena Lagna · Reviewed practitioner study</text>
  </g>

  <!-- Items grid -->
  
      <g>
        <rect x="40" y="230" width="545" height="147.33333333333334" rx="14" fill="#faf6ef" stroke="rgba(1,63,71,0.10)" stroke-width="1"/>
        <circle cx="94" cy="284" r="30" fill="#FBE2BD"/>
        <g transform="translate(74 264)" color="#338a95"><g fill="none" stroke="currentColor" stroke-width="2.4" stroke-linecap="round" stroke-linejoin="round"><path d="M12 6 V14 a4 4 0 0 0 4 4 H22 a4 4 0 0 0 4 -4 V6"/><circle cx="29" cy="24" r="3"/><path d="M19 18 V22 a4 4 0 0 0 4 4 H26"/><path d="M9 6 L15 6"/><path d="M23 6 L29 6"/></g></g>
        <text x="146" y="280" font-family="Georgia, 'Times New Roman', serif" font-size="26" font-weight="700" fill="#0d1f24">Higher education</text>
        <text x="146" y="312" font-family="system-ui, -apple-system, 'Segoe UI', Roboto, sans-serif" font-size="17" fill="#3a4f54">university teaching, doctoral research</text>
      </g>
    

      <g>
        <rect x="615" y="230" width="545" height="147.33333333333334" rx="14" fill="#faf6ef" stroke="rgba(1,63,71,0.10)" stroke-width="1"/>
        <circle cx="669" cy="284" r="30" fill="#FBE2BD"/>
        <g transform="translate(649 264)" color="#338a95"><g fill="none" stroke="currentColor" stroke-width="2.4" stroke-linecap="round" stroke-linejoin="round"><path d="M20 6 L20 30"/><path d="M12 30 L28 30"/><path d="M10 12 L20 8 L30 12"/><path d="M6 20 a4 4 0 0 0 8 0 L10 12 Z"/><path d="M26 20 a4 4 0 0 0 8 0 L30 12 Z"/></g></g>
        <text x="721" y="280" font-family="Georgia, 'Times New Roman', serif" font-size="26" font-weight="700" fill="#0d1f24">Law</text>
        <text x="721" y="312" font-family="system-ui, -apple-system, 'Segoe UI', Roboto, sans-serif" font-size="17" fill="#3a4f54">especially appellate, constitutional, and research law</text>
      </g>
    

      <g>
        <rect x="40" y="401.33333333333337" width="545" height="147.33333333333334" rx="14" fill="#faf6ef" stroke="rgba(1,63,71,0.10)" stroke-width="1"/>
        <circle cx="94" cy="455.33333333333337" r="30" fill="#FBE2BD"/>
        <g transform="translate(74 435.33333333333337)" color="#338a95"><g fill="none" stroke="currentColor" stroke-width="2.4" stroke-linecap="round" stroke-linejoin="round"><path d="M8 32 L12 28 L26 14 L30 18 L16 32 Z"/><path d="M24 12 L28 8 L32 12 L28 16"/><path d="M8 32 L14 30"/></g></g>
        <text x="146" y="451.33333333333337" font-family="Georgia, 'Times New Roman', serif" font-size="26" font-weight="700" fill="#0d1f24">Publishing</text>
        <text x="146" y="483.33333333333337" font-family="system-ui, -apple-system, 'Segoe UI', Roboto, sans-serif" font-size="17" fill="#3a4f54">scholarly editing, academic writing</text>
      </g>
    

      <g>
        <rect x="615" y="401.33333333333337" width="545" height="147.33333333333334" rx="14" fill="#faf6ef" stroke="rgba(1,63,71,0.10)" stroke-width="1"/>
        <circle cx="669" cy="455.33333333333337" r="30" fill="#FBE2BD"/>
        <g transform="translate(649 435.33333333333337)" color="#338a95"><g fill="none" stroke="currentColor" stroke-width="2.4" stroke-linecap="round" stroke-linejoin="round"><path d="M20 6 C12 14 14 22 20 22 C26 22 28 14 20 6 Z"/><path d="M14 22 C12 26 14 32 20 34 C26 32 28 26 26 22 C24 26 22 28 20 28 C18 28 16 26 14 22 Z"/></g></g>
        <text x="721" y="451.33333333333337" font-family="Georgia, 'Times New Roman', serif" font-size="26" font-weight="700" fill="#0d1f24">Philosophy</text>
        <text x="721" y="483.33333333333337" font-family="system-ui, -apple-system, 'Segoe UI', Roboto, sans-serif" font-size="17" fill="#3a4f54">theology, comparative religion, indology</text>
      </g>
    

      <g>
        <rect x="40" y="572.6666666666667" width="545" height="147.33333333333334" rx="14" fill="#faf6ef" stroke="rgba(1,63,71,0.10)" stroke-width="1"/>
        <circle cx="94" cy="626.6666666666667" r="30" fill="#FBE2BD"/>
        <g transform="translate(74 606.6666666666667)" color="#338a95"><g fill="none" stroke="currentColor" stroke-width="2.4" stroke-linecap="round" stroke-linejoin="round"><path d="M8 32 L12 28 L26 14 L30 18 L16 32 Z"/><path d="M24 12 L28 8 L32 12 L28 16"/><path d="M8 32 L14 30"/></g></g>
        <text x="146" y="622.6666666666667" font-family="Georgia, 'Times New Roman', serif" font-size="26" font-weight="700" fill="#0d1f24">Investigative journalism</text>
        <text x="146" y="654.6666666666667" font-family="system-ui, -apple-system, 'Segoe UI', Roboto, sans-serif" font-size="17" fill="#3a4f54">forensic, depth research</text>
      </g>
    

      <g>
        <rect x="615" y="572.6666666666667" width="545" height="147.33333333333334" rx="14" fill="#faf6ef" stroke="rgba(1,63,71,0.10)" stroke-width="1"/>
        <circle cx="669" cy="626.6666666666667" r="30" fill="#FBE2BD"/>
        <g transform="translate(649 606.6666666666667)" color="#338a95"><g fill="none" stroke="currentColor" stroke-width="2.4" stroke-linecap="round" stroke-linejoin="round"><rect x="4" y="14" width="32" height="20" rx="2"/><path d="M14 14 V8 H26 V14"/><path d="M4 22 L36 22"/></g></g>
        <text x="721" y="622.6666666666667" font-family="Georgia, 'Times New Roman', serif" font-size="26" font-weight="700" fill="#0d1f24">Cross-cultural advisory</text>
        <text x="721" y="654.6666666666667" font-family="system-ui, -apple-system, 'Segoe UI', Roboto, sans-serif" font-size="17" fill="#3a4f54">foreign-posting consultancy</text>
      </g>
    

  <!-- Footer -->
  <text x="40" y="760" font-family="system-ui, sans-serif" font-size="13" font-weight="600" letter-spacing="2" fill="#7a8a8f">VASTUCART EDITORIAL</text>
  <text x="1160" y="760" text-anchor="end" font-family="system-ui, sans-serif" font-size="13" fill="#7a8a8f">Dharma Bhava · classical Parashari tradition</text>
</svg>