<svg xmlns="http://www.w3.org/2000/svg" viewBox="0 0 1060 1048" width="1060" height="1048" role="img" aria-label="Vedic numerology Life Path 1 hero card">
  <defs>
    <linearGradient id="bgTeal" x1="0" y1="0" x2="0" y2="1">
      <stop offset="0%" stop-color="#02545E"/>
      <stop offset="55%" stop-color="#013F47"/>
      <stop offset="100%" stop-color="#012F36"/>
    </linearGradient>
    <radialGradient id="bgCream" cx="0.5" cy="0.5" r="0.72">
      <stop offset="0%" stop-color="#FBF6E8"/>
      <stop offset="100%" stop-color="#ECE0C5"/>
    </radialGradient>
    <linearGradient id="goldLine" x1="0" y1="0" x2="0" y2="1">
      <stop offset="0%" stop-color="#8B6420"/>
      <stop offset="50%" stop-color="#D9B76A"/>
      <stop offset="100%" stop-color="#8B6420"/>
    </linearGradient>
    <linearGradient id="goldLineH" x1="0" y1="0" x2="1" y2="0">
      <stop offset="0%" stop-color="#8B6420"/>
      <stop offset="50%" stop-color="#D9B76A"/>
      <stop offset="100%" stop-color="#8B6420"/>
    </linearGradient>
    <style>
      svg { --accent-color: #F2A04C; }
    </style>
  </defs>

  <!-- ===================== LEFT PANEL: deep teal ===================== -->
  <rect x="0" y="0" width="530" height="1048" fill="url(#bgTeal)"/>

  <g fill="#D9B76A" opacity="0.15">
    <circle cx="78"  cy="170"  r="1.2"/>
    <circle cx="448" cy="108"  r="1.5"/>
    <circle cx="382" cy="252"  r="0.9"/>
    <circle cx="492" cy="436"  r="1.3"/>
    <circle cx="42"  cy="540"  r="1.1"/>
    <circle cx="468" cy="780"  r="1.4"/>
    <circle cx="48"  cy="884"  r="0.8"/>
    <circle cx="420" cy="968"  r="1.2"/>
  </g>

  <g transform="translate(60 88)">
    <line x1="0" y1="0" x2="124" y2="0" stroke="url(#goldLineH)" stroke-width="1.4"/>
    <circle cx="62" cy="0" r="2.6" fill="#D9B76A"/>
  </g>

  <text id="eyebrow-slot" x="60" y="124"
        font-family="'Helvetica Neue', Arial, sans-serif"
        font-size="12" letter-spacing="3.6" font-weight="500"
        fill="#E0BF7C">LIFE PATH NUMBER</text>

  <text id="numeral-slot" x="60" y="232"
        font-family="Georgia, 'Times New Roman', serif"
        font-style="italic" font-size="92" font-weight="500"
        fill="var(--accent-color)">1</text>

  <text id="archetype-slot" x="60" y="306"
        font-family="Georgia, 'Times New Roman', serif"
        font-size="44" font-weight="400"
        fill="#F2EAD3">the Originator</text>

  <text id="planet-line-slot" x="60" y="354"
        font-family="Georgia, 'Times New Roman', serif"
        font-style="italic" font-size="22" letter-spacing="0.5"
        fill="#E0BF7C">ruled by Sūrya (Sun)</text>

  <line x1="60" y1="396" x2="146" y2="396" stroke="#B8893E" stroke-width="2"/>

  <g transform="translate(130 588)">
    <circle r="66" fill="#FBF6E8" stroke="url(#goldLine)" stroke-width="2.2"/>
    <text id="numeral-medallion-slot" x="0" y="24"
          text-anchor="middle"
          font-family="Georgia, 'Times New Roman', serif"
          font-weight="700" font-size="78"
          fill="var(--accent-color)">1</text>
  </g>
  <text id="number-name-slot" x="130" y="688"
        text-anchor="middle"
        font-family="Georgia, 'Times New Roman', serif"
        font-style="italic" font-size="20"
        fill="#F2EAD3">Eka</text>

  <g transform="translate(265 588)">
    <line x1="-77" y1="0" x2="-15" y2="0" stroke="#B8893E" stroke-width="1.2"/>
    <line x1="15"  y1="0" x2="77"  y2="0" stroke="#B8893E" stroke-width="1.2"/>
    <text x="0" y="7" text-anchor="middle"
          font-family="Georgia, 'Times New Roman', serif"
          font-style="italic" font-size="22"
          fill="#F2EAD3">in</text>
  </g>

  <g transform="translate(400 588)">
    <circle r="66" fill="#012E34" stroke="url(#goldLine)" stroke-width="2.2"/>
    <circle r="58" fill="none"
            stroke="var(--accent-color)" stroke-opacity="0.45"
            stroke-width="1"/>
    <text id="planet-glyph-slot" x="0" y="22"
          text-anchor="middle"
          font-family="Georgia, 'Times New Roman', serif"
          font-size="78"
          fill="var(--accent-color)">☉</text>
  </g>
  <text id="planet-name-slot" x="400" y="688"
        text-anchor="middle"
        font-family="Georgia, 'Times New Roman', serif"
        font-style="italic" font-size="20"
        fill="#F2EAD3">Sūrya</text>

  <g transform="translate(60 700)">
    <text font-family="'Helvetica Neue', Arial, sans-serif"
          font-size="12" letter-spacing="3.4"
          fill="#E0BF7C">KEY TRAITS</text>
    <line x1="0" y1="14" x2="56" y2="14" stroke="#B8893E" stroke-width="1.5"/>
  </g>

  <g id="trait-1-slot" transform="translate(60 740)">
    <text x="0" y="-2" font-family="'Helvetica Neue', Arial, sans-serif" font-size="14" fill="#F2A04C">✦</text>
    <text x="26" y="0" font-family="Georgia, 'Times New Roman', serif" font-size="16" fill="#F2EAD3">Natural authority that strangers register at first</text>
    <text x="26" y="21" font-family="Georgia, 'Times New Roman', serif" font-size="16" fill="#F2EAD3">sight</text>
  </g>
  <g id="trait-2-slot" transform="translate(60 794)">
    <text x="0" y="-2" font-family="'Helvetica Neue', Arial, sans-serif" font-size="14" fill="#F2A04C">✦</text>
    <text x="26" y="0" font-family="Georgia, 'Times New Roman', serif" font-size="16" fill="#F2EAD3">Capacity to start things from a blank canvas</text>
  </g>
  <g id="trait-3-slot" transform="translate(60 848)">
    <text x="0" y="-2" font-family="'Helvetica Neue', Arial, sans-serif" font-size="14" fill="#F2A04C">✦</text>
    <text x="26" y="0" font-family="Georgia, 'Times New Roman', serif" font-size="16" fill="#F2EAD3">Steady self-anchor under social pressure</text>
  </g>
  <g id="trait-4-slot" transform="translate(60 902)">
    <text x="0" y="-2" font-family="'Helvetica Neue', Arial, sans-serif" font-size="14" fill="#F2A04C">✦</text>
    <text x="26" y="0" font-family="Georgia, 'Times New Roman', serif" font-size="16" fill="#F2EAD3">Vision that holds across years of execution</text>
  </g>
  <g id="trait-5-slot" transform="translate(60 956)">
    <text x="0" y="-2" font-family="'Helvetica Neue', Arial, sans-serif" font-size="14" fill="#F2A04C">✦</text>
    <text x="26" y="0" font-family="Georgia, 'Times New Roman', serif" font-size="16" fill="#F2EAD3">Decisive judgement under time-bound stress</text>
  </g>

  <g transform="translate(60 1014)">
    <line x1="0" y1="0" x2="40" y2="0" stroke="#B8893E" stroke-width="1.2"/>
    <text x="50" y="5"
          font-family="Georgia, 'Times New Roman', serif"
          font-style="italic" font-size="13"
          fill="#F2EAD3">Vedic Numerology · Aṅka Series</text>
  </g>

  <!-- ===================== RIGHT PANEL: cream parchment ===================== -->
  <rect x="530" y="0" width="530" height="1048" fill="url(#bgCream)"/>

  <g fill="#7D5519" opacity="0.45">
    <circle cx="612" cy="128"  r="1.5"/>
    <circle cx="982" cy="184"  r="1.8"/>
    <circle cx="582" cy="384"  r="1.3"/>
    <circle cx="1012" cy="442" r="2.1"/>
    <circle cx="600" cy="704"  r="1.6"/>
    <circle cx="990" cy="762"  r="1.4"/>
    <circle cx="640" cy="932"  r="2.3"/>
    <circle cx="970" cy="990"  r="1.2"/>
  </g>

  <g stroke="#B8893E" stroke-width="1" opacity="0.55" fill="none" stroke-linecap="square">
    <path d="M 590 50 L 560 50 L 560 80"/>
    <path d="M 1000 50 L 1030 50 L 1030 80"/>
    <path d="M 590 998 L 560 998 L 560 968"/>
    <path d="M 1000 998 L 1030 998 L 1030 968"/>
  </g>

  <g transform="translate(795 524)">
    <circle r="268" fill="none" stroke="url(#goldLine)" stroke-width="1.6" opacity="0.55"/>

    <g fill="#B8893E" opacity="0.7">
      <circle cx="0"        cy="-240"    r="1.6"/>
      <circle cx="120"      cy="-207.85" r="1.6"/>
      <circle cx="207.85"   cy="-120"    r="1.6"/>
      <circle cx="240"      cy="0"       r="1.6"/>
      <circle cx="207.85"   cy="120"     r="1.6"/>
      <circle cx="120"      cy="207.85"  r="1.6"/>
      <circle cx="0"        cy="240"     r="1.6"/>
      <circle cx="-120"     cy="207.85"  r="1.6"/>
      <circle cx="-207.85"  cy="120"     r="1.6"/>
      <circle cx="-240"     cy="0"       r="1.6"/>
      <circle cx="-207.85"  cy="-120"    r="1.6"/>
      <circle cx="-120"     cy="-207.85" r="1.6"/>
    </g>
    <text id="planet-sanskrit-slot" x="0" y="-244"
          text-anchor="middle"
          font-family="Georgia, 'Times New Roman', serif"
          font-style="italic" font-size="12"
          fill="#7D5519">सूर्य</text>

    <g id="petal-ring-slot">
      <g transform="rotate(0.0000)">
        <path d="M 0 -86 Q 16 -126 0 -166 Q -16 -126 0 -86 Z"
              fill="var(--accent-color)" fill-opacity="0.18"
              stroke="var(--accent-color)" stroke-opacity="0.55" stroke-width="1.4"/>
      </g>
    </g>

    <g transform="translate(0 -144)">
      <circle r="28" fill="#012E34" stroke="url(#goldLine)" stroke-width="1.2"/>
      <text id="mandala-planet-glyph-slot" x="0" y="12"
            text-anchor="middle"
            font-family="Georgia, 'Times New Roman', serif"
            font-size="36"
            fill="var(--accent-color)">☉</text>
    </g>

    <circle r="80" fill="#FBF6E8" stroke="url(#goldLine)" stroke-width="2.4"/>
    <text id="mandala-numeral-slot" x="0" y="50"
          text-anchor="middle"
          font-family="Georgia, 'Times New Roman', serif"
          font-style="italic" font-weight="700" font-size="140"
          fill="var(--accent-color)">1</text>
  </g>

  <text x="795" y="820"
        text-anchor="middle"
        font-family="Georgia, 'Times New Roman', serif"
        font-style="italic" font-size="14" letter-spacing="1.5"
        fill="#7D5519" opacity="0.7">Aṅka Mandala</text>
  <text id="mandala-caption-slot" x="795" y="843"
        text-anchor="middle"
        font-family="Georgia, 'Times New Roman', serif"
        font-size="12" letter-spacing="2"
        fill="#7D5519">LIFE PATH 1 · SŪRYA · SUN</text>

  <line x1="529" y1="0" x2="529" y2="1048"
        stroke="url(#goldLine)" stroke-width="1" opacity="0.55"/>
</svg>
