<svg xmlns="http://www.w3.org/2000/svg"
     width="1024" height="1024" viewBox="0 0 1024 1024"
     role="img" aria-label="Number 9 mandala with Mars sigils on the rim">
  <defs>
    <radialGradient id="bgRadial" cx="50%" cy="50%" r="60%">
      <stop offset="0%" stop-color="#FBF6E8"/>
      <stop offset="80%" stop-color="#F2EAD3"/>
      <stop offset="100%" stop-color="#ECE0C5"/>
    </radialGradient>
    <radialGradient id="centreGlow" cx="50%" cy="50%" r="50%">
      <stop offset="0%" stop-color="#E97A2B" stop-opacity="0.6"/>
      <stop offset="60%" stop-color="#E97A2B" stop-opacity="0.10"/>
      <stop offset="100%" stop-color="#E97A2B" stop-opacity="0"/>
    </radialGradient>
  </defs>

  <rect width="1024" height="1024" fill="url(#bgRadial)"/>

  <!-- Decorative outer ring -->
  <circle cx="512" cy="512" r="430" fill="none" stroke="#B8893E" stroke-width="1" opacity="0.45"/>
  <circle cx="512" cy="512" r="440" fill="none" stroke="#B8893E" stroke-width="0.6" opacity="0.30"/>

  <!-- Centre glow -->
  <circle cx="512" cy="512" r="390" fill="url(#centreGlow)"/>

  <!-- Sigils on rim -->
  <g transform="translate(645.4 145.5)">
         <circle r="22" fill="#013F47" stroke="#B8893E" stroke-width="1.4"/>
         <text y="9" font-family="Georgia, serif" font-size="26" fill="#E97A2B" text-anchor="middle" font-weight="600">♂</text>
       </g>
  <g transform="translate(849.7 317.0)">
         <circle r="22" fill="#013F47" stroke="#B8893E" stroke-width="1.4"/>
         <text y="9" font-family="Georgia, serif" font-size="26" fill="#E97A2B" text-anchor="middle" font-weight="600">♂</text>
       </g>
  <g transform="translate(896.1 579.7)">
         <circle r="22" fill="#013F47" stroke="#B8893E" stroke-width="1.4"/>
         <text y="9" font-family="Georgia, serif" font-size="26" fill="#E97A2B" text-anchor="middle" font-weight="600">♂</text>
       </g>
  <g transform="translate(762.7 810.8)">
         <circle r="22" fill="#013F47" stroke="#B8893E" stroke-width="1.4"/>
         <text y="9" font-family="Georgia, serif" font-size="26" fill="#E97A2B" text-anchor="middle" font-weight="600">♂</text>
       </g>
  <g transform="translate(512.0 902.0)">
         <circle r="22" fill="#013F47" stroke="#B8893E" stroke-width="1.4"/>
         <text y="9" font-family="Georgia, serif" font-size="26" fill="#E97A2B" text-anchor="middle" font-weight="600">♂</text>
       </g>
  <g transform="translate(261.3 810.8)">
         <circle r="22" fill="#013F47" stroke="#B8893E" stroke-width="1.4"/>
         <text y="9" font-family="Georgia, serif" font-size="26" fill="#E97A2B" text-anchor="middle" font-weight="600">♂</text>
       </g>
  <g transform="translate(127.9 579.7)">
         <circle r="22" fill="#013F47" stroke="#B8893E" stroke-width="1.4"/>
         <text y="9" font-family="Georgia, serif" font-size="26" fill="#E97A2B" text-anchor="middle" font-weight="600">♂</text>
       </g>
  <g transform="translate(174.3 317.0)">
         <circle r="22" fill="#013F47" stroke="#B8893E" stroke-width="1.4"/>
         <text y="9" font-family="Georgia, serif" font-size="26" fill="#E97A2B" text-anchor="middle" font-weight="600">♂</text>
       </g>
  <g transform="translate(378.6 145.5)">
         <circle r="22" fill="#013F47" stroke="#B8893E" stroke-width="1.4"/>
         <text y="9" font-family="Georgia, serif" font-size="26" fill="#E97A2B" text-anchor="middle" font-weight="600">♂</text>
       </g>

  <!-- Lotus petals -->
  <path d="M 577.3 323.0 Q 560.3 238.2, 512.0 182.0 Q 463.7 238.2, 446.7 323.0 Z" fill="#E97A2B" fill-opacity="0.20" stroke="#B8893E" stroke-width="2.2" stroke-opacity="0.9"/>
  <path d="M 683.5 409.1 Q 725.0 333.3, 724.1 259.2 Q 651.0 271.2, 583.5 325.2 Z" fill="#E97A2B" fill-opacity="0.20" stroke="#B8893E" stroke-width="2.2" stroke-opacity="0.9"/>
  <path d="M 709.5 543.5 Q 790.0 512.0, 837.0 454.7 Q 773.2 416.9, 686.8 414.9 Z" fill="#E97A2B" fill-opacity="0.20" stroke="#B8893E" stroke-width="2.2" stroke-opacity="0.9"/>
  <path d="M 643.1 663.1 Q 725.0 690.7, 797.8 677.0 Q 773.2 607.1, 708.4 550.0 Z" fill="#E97A2B" fill-opacity="0.20" stroke="#B8893E" stroke-width="2.2" stroke-opacity="0.9"/>
  <path d="M 515.3 712.0 Q 560.3 785.8, 624.9 822.1 Q 651.0 752.8, 638.0 667.3 Z" fill="#E97A2B" fill-opacity="0.20" stroke="#B8893E" stroke-width="2.2" stroke-opacity="0.9"/>
  <path d="M 386.0 667.3 Q 373.0 752.8, 399.1 822.1 Q 463.7 785.8, 508.7 712.0 Z" fill="#E97A2B" fill-opacity="0.20" stroke="#B8893E" stroke-width="2.2" stroke-opacity="0.9"/>
  <path d="M 315.6 550.0 Q 250.8 607.1, 226.2 677.0 Q 299.0 690.7, 380.9 663.1 Z" fill="#E97A2B" fill-opacity="0.20" stroke="#B8893E" stroke-width="2.2" stroke-opacity="0.9"/>
  <path d="M 337.2 414.9 Q 250.8 416.9, 187.0 454.7 Q 234.0 512.0, 314.5 543.5 Z" fill="#E97A2B" fill-opacity="0.20" stroke="#B8893E" stroke-width="2.2" stroke-opacity="0.9"/>
  <path d="M 440.5 325.2 Q 373.0 271.2, 299.9 259.2 Q 299.0 333.3, 340.5 409.1 Z" fill="#E97A2B" fill-opacity="0.20" stroke="#B8893E" stroke-width="2.2" stroke-opacity="0.9"/>

  <!-- Inner disc -->
  <circle cx="512" cy="512" r="200" fill="#FBF6E8" stroke="#B8893E" stroke-width="2.4"/>
  <circle cx="512" cy="512" r="186" fill="none" stroke="#E97A2B" stroke-width="1.6" opacity="0.55"/>
  <circle cx="512" cy="512" r="172" fill="none" stroke="#B8893E" stroke-width="0.8" opacity="0.4"/>

  <!-- Devanagari label arched above the numeral -->
  <text x="512" y="412" text-anchor="middle"
        font-family="Georgia, 'Times New Roman', serif" font-size="34"
        fill="#7D5519" letter-spacing="3" opacity="0.85">मङ्गल</text>

  <!-- Big numeral -->
  <text x="512" y="592" text-anchor="middle"
        font-family="Georgia, 'Times New Roman', serif" font-size="280"
        fill="#E97A2B" font-weight="700">9</text>

  <!-- Caption -->
  <text x="512" y="937" text-anchor="middle"
        font-family="Georgia, serif" font-size="16"
        fill="#013F47" opacity="0.85" letter-spacing="2.5"
        font-weight="500">LIFE PATH 9 · MARS (MANGALA)</text>
  <text x="512" y="964" text-anchor="middle"
        font-family="Georgia, serif" font-size="13"
        fill="#7D5519" opacity="0.75" letter-spacing="1.8"
        font-style="italic">Vedic Numerology Mandala · VastuCart Editorial</text>
</svg>
