<svg xmlns="http://www.w3.org/2000/svg" viewBox="0 0 1200 800" role="img" aria-label="Saturn in 6th house career fits for Mesh Lagna">
  <defs>
    <linearGradient id="bg" x1="0" y1="0" x2="1" y2="1">
      <stop offset="0%" stop-color="#012a30"/>
      <stop offset="100%" stop-color="#01262b"/>
    </linearGradient>
    <linearGradient id="cardBg" x1="0" y1="0" x2="0" y2="1">
      <stop offset="0%" stop-color="#F4ECDA"/>
      <stop offset="100%" stop-color="#faf6ef"/>
    </linearGradient>
    <pattern id="diamondPattern" x="0" y="0" width="34" height="34" patternUnits="userSpaceOnUse">
      <path d="M17 2 L32 17 L17 32 L2 17 Z" fill="none" stroke="#7a8a8f" stroke-opacity="0.06" stroke-width="1"/>
    </pattern>
  </defs>

  <!-- Outer card with brand gradient -->
  <rect x="0" y="0" width="1200" height="800" fill="url(#bg)"/>
  <rect x="0" y="0" width="1200" height="800" fill="url(#diamondPattern)"/>

  <!-- Inner cream panel -->
  <rect x="20" y="20" width="1160" height="760" rx="20" fill="url(#cardBg)"/>

  <!-- Header band -->
  <g>
    <text x="40" y="74" font-family="system-ui, -apple-system, sans-serif" font-size="14" font-weight="700" letter-spacing="3" fill="#7a8a8f">CAREER FITS</text>
    <text x="40" y="86" font-family="system-ui, -apple-system, sans-serif" font-size="14" font-weight="700" letter-spacing="3" fill="#7a8a8f">_______________</text>

    <!-- Planet glyph chip -->
    <circle cx="86" cy="146" r="42" fill="#7a8a8f"/>
    <g transform="translate(86 146)"><g transform="scale(0.9)">
    <path d="M 4 -22 L 4 14 Q 4 22 -4 22 Q -12 22 -12 14"
          stroke="#faf6ef" stroke-width="3.4" stroke-linecap="round" stroke-linejoin="round" fill="none"/>
    <line x1="-8" y1="-14" x2="14" y2="-14" stroke="#faf6ef" stroke-width="3.4" stroke-linecap="round" stroke-linejoin="round" fill="none"/>
  </g></g>

    <!-- Title -->
    <text x="160" y="146" font-family="Georgia, 'Times New Roman', serif" font-size="44" font-weight="700" fill="#0d1f24">Saturn in the 6th house</text>
    <text x="160" y="186" font-family="Georgia, serif" font-style="italic" font-size="22" fill="#3a4f54">Mesh Lagna · Reviewed practitioner study</text>
  </g>

  <!-- Items grid -->
  
      <g>
        <rect x="40" y="230" width="545" height="147.33333333333334" rx="14" fill="#faf6ef" stroke="rgba(1,63,71,0.10)" stroke-width="1"/>
        <circle cx="94" cy="284" r="30" fill="#FBE2BD"/>
        <g transform="translate(74 264)" color="#7a8a8f"><g fill="none" stroke="currentColor" stroke-width="2.4" stroke-linecap="round" stroke-linejoin="round"><path d="M4 12 L20 4 L36 12"/><path d="M6 12 V32"/><path d="M14 12 V32"/><path d="M26 12 V32"/><path d="M34 12 V32"/><path d="M2 34 L38 34"/></g></g>
        <text x="146" y="280" font-family="Georgia, 'Times New Roman', serif" font-size="26" font-weight="700" fill="#0d1f24">Civil service</text>
        <text x="146" y="312" font-family="system-ui, -apple-system, 'Segoe UI', Roboto, sans-serif" font-size="17" fill="#3a4f54">government administration</text>
      </g>
    

      <g>
        <rect x="615" y="230" width="545" height="147.33333333333334" rx="14" fill="#faf6ef" stroke="rgba(1,63,71,0.10)" stroke-width="1"/>
        <circle cx="669" cy="284" r="30" fill="#FBE2BD"/>
        <g transform="translate(649 264)" color="#7a8a8f"><g fill="none" stroke="currentColor" stroke-width="2.4" stroke-linecap="round" stroke-linejoin="round"><path d="M20 6 L20 30"/><path d="M12 30 L28 30"/><path d="M10 12 L20 8 L30 12"/><path d="M6 20 a4 4 0 0 0 8 0 L10 12 Z"/><path d="M26 20 a4 4 0 0 0 8 0 L30 12 Z"/></g></g>
        <text x="721" y="280" font-family="Georgia, 'Times New Roman', serif" font-size="26" font-weight="700" fill="#0d1f24">Law</text>
        <text x="721" y="312" font-family="system-ui, -apple-system, 'Segoe UI', Roboto, sans-serif" font-size="17" fill="#3a4f54">especially civil, compliance</text>
      </g>
    

      <g>
        <rect x="40" y="401.33333333333337" width="545" height="147.33333333333334" rx="14" fill="#faf6ef" stroke="rgba(1,63,71,0.10)" stroke-width="1"/>
        <circle cx="94" cy="455.33333333333337" r="30" fill="#FBE2BD"/>
        <g transform="translate(74 435.33333333333337)" color="#7a8a8f"><g fill="none" stroke="currentColor" stroke-width="2.4" stroke-linecap="round" stroke-linejoin="round"><path d="M12 6 V14 a4 4 0 0 0 4 4 H22 a4 4 0 0 0 4 -4 V6"/><circle cx="29" cy="24" r="3"/><path d="M19 18 V22 a4 4 0 0 0 4 4 H26"/><path d="M9 6 L15 6"/><path d="M23 6 L29 6"/></g></g>
        <text x="146" y="451.33333333333337" font-family="Georgia, 'Times New Roman', serif" font-size="26" font-weight="700" fill="#0d1f24">Healthcare administration</text>
        <text x="146" y="483.33333333333337" font-family="system-ui, -apple-system, 'Segoe UI', Roboto, sans-serif" font-size="17" fill="#3a4f54">senior hospital</text>
      </g>
    

      <g>
        <rect x="615" y="401.33333333333337" width="545" height="147.33333333333334" rx="14" fill="#faf6ef" stroke="rgba(1,63,71,0.10)" stroke-width="1"/>
        <circle cx="669" cy="455.33333333333337" r="30" fill="#FBE2BD"/>
        <g transform="translate(649 435.33333333333337)" color="#7a8a8f"><g fill="none" stroke="currentColor" stroke-width="2.4" stroke-linecap="round" stroke-linejoin="round"><path d="M4 20 C8 12 14 8 20 8 C26 8 32 12 36 20 C32 28 26 32 20 32 C14 32 8 28 4 20 Z"/><circle cx="20" cy="20" r="5"/></g></g>
        <text x="721" y="451.33333333333337" font-family="Georgia, 'Times New Roman', serif" font-size="26" font-weight="700" fill="#0d1f24">Forensic accounting</text>
        <text x="721" y="483.33333333333337" font-family="system-ui, -apple-system, 'Segoe UI', Roboto, sans-serif" font-size="17" fill="#3a4f54">audit</text>
      </g>
    

      <g>
        <rect x="40" y="572.6666666666667" width="545" height="147.33333333333334" rx="14" fill="#faf6ef" stroke="rgba(1,63,71,0.10)" stroke-width="1"/>
        <circle cx="94" cy="626.6666666666667" r="30" fill="#FBE2BD"/>
        <g transform="translate(74 606.6666666666667)" color="#7a8a8f"><g fill="none" stroke="currentColor" stroke-width="2.4" stroke-linecap="round" stroke-linejoin="round"><path d="M20 6 L8 11 V20 a14 14 0 0 0 12 14 a14 14 0 0 0 12 -14 V11 Z"/><path d="M16 20 L19 23 L26 16"/></g></g>
        <text x="146" y="622.6666666666667" font-family="Georgia, 'Times New Roman', serif" font-size="26" font-weight="700" fill="#0d1f24">Military</text>
        <text x="146" y="654.6666666666667" font-family="system-ui, -apple-system, 'Segoe UI', Roboto, sans-serif" font-size="17" fill="#3a4f54">defence administrative</text>
      </g>
    

      <g>
        <rect x="615" y="572.6666666666667" width="545" height="147.33333333333334" rx="14" fill="#faf6ef" stroke="rgba(1,63,71,0.10)" stroke-width="1"/>
        <circle cx="669" cy="626.6666666666667" r="30" fill="#FBE2BD"/>
        <g transform="translate(649 606.6666666666667)" color="#7a8a8f"><g fill="none" stroke="currentColor" stroke-width="2.4" stroke-linecap="round" stroke-linejoin="round"><path d="M20 4 L24 14 L34 14 L26 22 L29 32 L20 26 L11 32 L14 22 L6 14 L16 14 Z"/></g></g>
        <text x="721" y="622.6666666666667" font-family="Georgia, 'Times New Roman', serif" font-size="26" font-weight="700" fill="#0d1f24">Debt restructuring</text>
        <text x="721" y="654.6666666666667" font-family="system-ui, -apple-system, 'Segoe UI', Roboto, sans-serif" font-size="17" fill="#3a4f54">recovery</text>
      </g>
    

  <!-- Footer -->
  <text x="40" y="760" font-family="system-ui, sans-serif" font-size="13" font-weight="600" letter-spacing="2" fill="#7a8a8f">VASTUCART EDITORIAL</text>
  <text x="1160" y="760" text-anchor="end" font-family="system-ui, sans-serif" font-size="13" fill="#7a8a8f">Ripu Bhava · classical Parashari tradition</text>
</svg>