<svg xmlns="http://www.w3.org/2000/svg" viewBox="0 0 1200 800" role="img" aria-label="Saturn remedies for 8th house Meena Lagna">
  <defs>
    <linearGradient id="bg" x1="0" y1="0" x2="1" y2="1">
      <stop offset="0%" stop-color="#012a30"/>
      <stop offset="100%" stop-color="#01262b"/>
    </linearGradient>
    <linearGradient id="cardBg" x1="0" y1="0" x2="0" y2="1">
      <stop offset="0%" stop-color="#F4ECDA"/>
      <stop offset="100%" stop-color="#faf6ef"/>
    </linearGradient>
    <pattern id="diamondPattern" x="0" y="0" width="34" height="34" patternUnits="userSpaceOnUse">
      <path d="M17 2 L32 17 L17 32 L2 17 Z" fill="none" stroke="#7a8a8f" stroke-opacity="0.06" stroke-width="1"/>
    </pattern>
  </defs>

  <rect x="0" y="0" width="1200" height="800" fill="url(#bg)"/>
  <rect x="0" y="0" width="1200" height="800" fill="url(#diamondPattern)"/>

  <rect x="20" y="20" width="1160" height="760" rx="20" fill="url(#cardBg)"/>

  <g>
    <text x="40" y="74" font-family="system-ui, sans-serif" font-size="14" font-weight="700" letter-spacing="3" fill="#c9a84c">REMEDIES AT A GLANCE</text>
    <text x="40" y="86" font-family="system-ui, sans-serif" font-size="14" font-weight="700" letter-spacing="3" fill="#c9a84c">________________________</text>

    <circle cx="86" cy="146" r="42" fill="#c9a84c"/>
    <g transform="translate(86 146)"><g transform="scale(0.9)">
    <path d="M 4 -22 L 4 14 Q 4 22 -4 22 Q -12 22 -12 14"
          stroke="#faf6ef" stroke-width="3.4" stroke-linecap="round" stroke-linejoin="round" fill="none"/>
    <line x1="-8" y1="-14" x2="14" y2="-14" stroke="#faf6ef" stroke-width="3.4" stroke-linecap="round" stroke-linejoin="round" fill="none"/>
  </g></g>

    <text x="160" y="146" font-family="Georgia, 'Times New Roman', serif" font-size="44" font-weight="700" fill="#0d1f24">Saturn remedies, 8th house</text>
    <text x="160" y="186" font-family="Georgia, serif" font-style="italic" font-size="22" fill="#3a4f54">Meena Lagna · daily practice protocol</text>
  </g>

  
      <g>
        <rect x="40" y="230" width="545" height="147.33333333333334" rx="14" fill="#faf6ef" stroke="rgba(1,63,71,0.10)" stroke-width="1"/>
        <circle cx="94" cy="284" r="30" fill="#F0E0B0"/>
        <g transform="translate(74 264)" color="#c9a84c"><g fill="none" stroke="currentColor" stroke-width="2.4" stroke-linecap="round" stroke-linejoin="round"><path d="M20 4 L23 16 L34 20 L23 24 L20 36 L17 24 L6 20 L17 16 Z"/></g></g>
        <text x="146" y="280" font-family="Georgia, 'Times New Roman', serif" font-size="26" font-weight="700" fill="#0d1f24">Mantra</text>
        <text x="146" y="312" font-family="system-ui, -apple-system, 'Segoe UI', Roboto, sans-serif" font-size="17" fill="#3a4f54">Shani Stotram</text>
      </g>
    

      <g>
        <rect x="615" y="230" width="545" height="147.33333333333334" rx="14" fill="#faf6ef" stroke="rgba(1,63,71,0.10)" stroke-width="1"/>
        <circle cx="669" cy="284" r="30" fill="#F0E0B0"/>
        <g transform="translate(649 264)" color="#c9a84c"><g fill="none" stroke="currentColor" stroke-width="2.4" stroke-linejoin="round" stroke-linecap="round"><path d="M10 14 L20 6 L30 14 L20 34 Z"/><path d="M10 14 L30 14"/><path d="M20 6 L20 14"/><path d="M14 14 L20 34"/><path d="M26 14 L20 34"/></g></g>
        <text x="721" y="280" font-family="Georgia, 'Times New Roman', serif" font-size="26" font-weight="700" fill="#0d1f24">Gemstone</text>
        <text x="721" y="312" font-family="system-ui, -apple-system, 'Segoe UI', Roboto, sans-serif" font-size="17" fill="#3a4f54">Neelam Blue Sapphire</text>
      </g>
    

      <g>
        <rect x="40" y="401.33333333333337" width="545" height="147.33333333333334" rx="14" fill="#faf6ef" stroke="rgba(1,63,71,0.10)" stroke-width="1"/>
        <circle cx="94" cy="455.33333333333337" r="30" fill="#F0E0B0"/>
        <g transform="translate(74 435.33333333333337)" color="#c9a84c"><g fill="none" stroke="currentColor" stroke-width="2.4" stroke-linecap="round" stroke-linejoin="round"><rect x="6" y="10" width="28" height="24" rx="2"/><path d="M6 16 L34 16"/><path d="M14 6 V14"/><path d="M26 6 V14"/></g></g>
        <text x="146" y="451.33333333333337" font-family="Georgia, 'Times New Roman', serif" font-size="26" font-weight="700" fill="#0d1f24">Day</text>
        <text x="146" y="483.33333333333337" font-family="system-ui, -apple-system, 'Segoe UI', Roboto, sans-serif" font-size="17" fill="#3a4f54">Saturday evening</text>
      </g>
    

      <g>
        <rect x="615" y="401.33333333333337" width="545" height="147.33333333333334" rx="14" fill="#faf6ef" stroke="rgba(1,63,71,0.10)" stroke-width="1"/>
        <circle cx="669" cy="455.33333333333337" r="30" fill="#F0E0B0"/>
        <g transform="translate(649 435.33333333333337)" color="#c9a84c"><g fill="none" stroke="currentColor" stroke-width="2.4" stroke-linecap="round" stroke-linejoin="round"><path d="M20 4 C10 4 4 12 4 20 C4 28 10 36 20 36 C24 36 24 32 22 30 C20 28 22 26 26 26 C32 26 36 22 36 16 C36 8 28 4 20 4 Z"/><circle cx="12" cy="14" r="2" fill="currentColor"/><circle cx="20" cy="10" r="2" fill="currentColor"/><circle cx="28" cy="14" r="2" fill="currentColor"/></g></g>
        <text x="721" y="451.33333333333337" font-family="Georgia, 'Times New Roman', serif" font-size="26" font-weight="700" fill="#0d1f24">Colour</text>
        <text x="721" y="483.33333333333337" font-family="system-ui, -apple-system, 'Segoe UI', Roboto, sans-serif" font-size="17" fill="#3a4f54">Dark blue, grey, black</text>
      </g>
    

      <g>
        <rect x="40" y="572.6666666666667" width="545" height="147.33333333333334" rx="14" fill="#faf6ef" stroke="rgba(1,63,71,0.10)" stroke-width="1"/>
        <circle cx="94" cy="626.6666666666667" r="30" fill="#F0E0B0"/>
        <g transform="translate(74 606.6666666666667)" color="#c9a84c"><g fill="none" stroke="currentColor" stroke-width="2.4" stroke-linecap="round" stroke-linejoin="round"><circle cx="20" cy="20" r="14"/><path d="M20 20 L24 14 L26 16 L22 22 Z" fill="currentColor"/></g></g>
        <text x="146" y="622.6666666666667" font-family="Georgia, 'Times New Roman', serif" font-size="26" font-weight="700" fill="#0d1f24">Yantra</text>
        <text x="146" y="654.6666666666667" font-family="system-ui, -apple-system, 'Segoe UI', Roboto, sans-serif" font-size="17" fill="#3a4f54">Shani Yantra · West corner of the home</text>
      </g>
    

      <g>
        <rect x="615" y="572.6666666666667" width="545" height="147.33333333333334" rx="14" fill="#faf6ef" stroke="rgba(1,63,71,0.10)" stroke-width="1"/>
        <circle cx="669" cy="626.6666666666667" r="30" fill="#F0E0B0"/>
        <g transform="translate(649 606.6666666666667)" color="#c9a84c"><g fill="none" stroke="currentColor" stroke-width="2.4" stroke-linecap="round" stroke-linejoin="round"><path d="M20 32 C8 24 4 17 8 11 C12 5 18 7 20 12 C22 7 28 5 32 11 C36 17 32 24 20 32 Z"/></g></g>
        <text x="721" y="622.6666666666667" font-family="Georgia, 'Times New Roman', serif" font-size="26" font-weight="700" fill="#0d1f24">Donation</text>
        <text x="721" y="654.6666666666667" font-family="system-ui, -apple-system, 'Segoe UI', Roboto, sans-serif" font-size="17" fill="#3a4f54">Sesame oil, iron, food to elders</text>
      </g>
    

  <text x="40" y="760" font-family="system-ui, sans-serif" font-size="13" font-weight="600" letter-spacing="2" fill="#7a8a8f">VASTUCART EDITORIAL</text>
  <text x="1160" y="760" text-anchor="end" font-family="system-ui, sans-serif" font-size="13" fill="#7a8a8f">Randhra Bhava · ratified by review panel</text>
</svg>